<svg xmlns="http://www.w3.org/2000/svg" width="136" height="126" viewBox="0 0 136 126" fill="none">
  <g clip-path="url(#clip0_5193_30326)">
    <path d="M97.1899 6.9559V47.5864H80.8516V6.9559C80.8516 4.42704 83.0545 2.23535 85.9917 2.23535H92.0498C94.8034 2.23535 97.1899 4.25845 97.1899 6.9559Z" fill="#45C8F5"/>
    <path d="M97.1898 26.6814C96.0883 26.6814 95.354 26.0071 95.354 24.9955V6.95627C95.354 5.27036 93.8854 3.92163 92.0496 3.92163H85.9916C84.1558 3.92163 82.6872 5.27036 82.6872 6.95627V9.99091C82.6872 11.0025 81.9529 11.6768 80.8514 11.6768C79.7499 11.6768 79.0156 11.0025 79.0156 9.99091V6.95627C79.0156 3.41585 82.1364 0.549805 85.9916 0.549805H92.0496C95.9047 0.549805 99.0255 3.41585 99.0255 6.95627V24.9955C99.0255 26.0071 98.2912 26.6814 97.1898 26.6814Z" fill="#2B3C65"/>
    <path d="M101.781 38.8198V90.7459H18.4375V38.8198L54.9693 5.27016C57.9066 2.57271 62.496 2.57271 65.4332 5.27016L101.781 38.8198Z" fill="#C9D8EF"/>
    <path d="M65.4297 5.27015L95.3527 32.9191L65.0625 5.10156C65.2461 5.10156 65.2461 5.27015 65.4297 5.27015Z" fill="#B2CBEA"/>
    <path d="M101.781 38.8196V90.7457H18.4375V84.845H38.8146C70.0226 84.845 95.3563 61.5794 95.3563 32.9189L101.781 38.8196Z" fill="#B2CBEA"/>
    <path d="M59.9257 92.4317H18.4373C17.3359 92.4317 16.6016 91.7573 16.6016 90.7458V38.8197C16.6016 38.3139 16.7851 37.9767 17.1523 37.6396L53.6841 4.08992C57.1721 0.886692 63.0466 0.886692 66.7181 4.08992L103.066 37.6396C103.801 38.3139 103.801 39.3255 103.066 39.9998C102.332 40.6742 101.231 40.6742 100.496 39.9998L64.148 6.4502C61.9451 4.5957 58.2736 4.5957 56.2542 6.4502L20.2731 39.4941V89.0599H59.9257C61.0272 89.0599 61.7615 89.7342 61.7615 90.7458C61.7615 91.7573 61.0272 92.4317 59.9257 92.4317Z" fill="#2B3C65"/>
    <path d="M12.1951 46.2382C11.6444 46.2382 11.2773 46.0696 10.9101 45.7324C10.1758 45.058 10.1758 44.0465 10.9101 43.3721L53.6836 4.09039C57.3551 0.718568 63.046 0.718568 66.7175 4.09039L103.066 37.64L109.491 43.3721C110.225 44.0465 110.225 45.058 109.491 45.7324C108.757 46.4068 107.655 46.4068 106.921 45.7324L100.496 40.0003L64.1474 6.45067C61.9445 4.42757 58.4566 4.42757 56.2536 6.45067L13.4802 45.7324C13.113 46.0696 12.7459 46.2382 12.1951 46.2382Z" fill="#2B3C65"/>
    <path d="M75.8956 57.5331V90.7456H44.3203V57.5331C44.3203 54.1613 47.2575 51.4639 50.9291 51.4639H69.4704C72.9583 51.4639 75.8956 54.1613 75.8956 57.5331Z" fill="#AF8BBF"/>
    <path d="M59.9242 92.4319H44.3201C43.2187 92.4319 42.4844 91.7575 42.4844 90.746V57.5335C42.4844 53.3187 46.3395 49.7783 50.9289 49.7783H69.2866C70.0209 49.7783 70.9388 49.7783 71.6731 50.1155C72.591 50.4527 73.1417 51.2956 72.7746 52.3072C72.4074 53.1501 71.4895 53.6559 70.3881 53.3187C70.2045 53.3187 69.8374 53.3187 69.103 53.3187H50.7453C47.9917 53.3187 45.9723 55.1732 45.9723 57.7021V89.2287H59.7406C60.8421 89.2287 61.5764 89.903 61.5764 90.9146C61.5764 91.9261 61.0257 92.4319 59.9242 92.4319Z" fill="#2B3C65"/>
    <path d="M59.9252 92.4324H12.1951C11.0937 92.4324 10.3594 91.758 10.3594 90.7465C10.3594 89.7349 11.0937 89.0605 12.1951 89.0605H59.9252C61.0266 89.0605 61.7609 89.7349 61.7609 90.7465C61.7609 91.758 61.0266 92.4324 59.9252 92.4324Z" fill="#2B3C65"/>
    <path d="M119.4 74.5607C114.443 87.8794 72.7711 87.8794 67.8146 74.5607C64.3266 65.1196 84.5201 46.7432 93.5154 46.7432C102.694 46.7432 122.888 65.1196 119.4 74.5607Z" fill="#F05991"/>
    <path d="M112.428 58.376C107.838 54.8355 103.065 52.3067 99.761 52.3067C90.5822 52.3067 70.3887 70.6831 73.8767 80.1242C73.8767 80.2928 74.0603 80.4614 74.0603 80.63C70.9394 79.1127 68.5529 76.921 67.6351 74.3921C64.3307 65.1196 84.5242 46.7432 93.5194 46.7432C98.476 46.7432 106.553 51.9695 112.428 58.376Z" fill="#EE3C81"/>
    <path d="M93.7017 86.1939C82.8707 86.1939 69.286 83.3278 66.1652 75.0668C64.3294 70.1777 67.8174 64.277 70.9382 60.2308C76.6291 52.9814 86.9094 45.0576 93.7017 45.0576C100.494 45.0576 110.958 52.9814 116.649 60.2308C119.77 64.277 123.258 70.1777 121.422 75.0668C118.117 83.3278 104.349 86.1939 93.7017 86.1939ZM93.5182 48.4294C88.9287 48.4294 79.3827 55.0045 73.8754 62.2539C70.2039 66.9745 68.5517 71.3578 69.6531 74.0553C71.6725 79.2816 81.4021 82.822 93.7017 82.822C106.001 82.822 115.731 79.113 117.75 74.0553C118.668 71.3578 117.2 66.9745 113.528 62.2539C107.654 54.8359 98.2912 48.4294 93.5182 48.4294Z" fill="#2B3C65"/>
    <path d="M117.201 105.751C122.158 105.751 125.462 100.693 122.892 96.8156C119.404 91.5892 112.979 88.0488 105.82 88.0488H81.4039C74.2444 88.0488 67.8192 91.5892 64.3312 96.8156C61.7611 100.693 65.0655 105.751 70.0221 105.751H117.201Z" fill="#E4EBF7"/>
    <path d="M123.072 96.9842C120.135 95.2982 116.647 94.4553 112.975 94.4553H88.3759C80.1149 94.4553 72.9554 99.1758 69.8346 105.751C64.878 105.751 61.5736 100.693 64.1437 96.8156C67.6317 91.5892 74.0569 88.0488 81.2164 88.0488H105.632C113.159 88.0488 119.584 91.5892 123.072 96.9842Z" fill="#C9D8EF"/>
    <path d="M117.198 107.605H69.8352C66.8979 107.605 63.9607 106.088 62.4921 103.559C61.0235 101.199 61.0235 98.3329 62.4921 95.9726C66.5308 90.0719 73.3231 86.3629 80.8498 86.1943C81.7677 86.1943 82.6856 86.8687 82.6856 87.8802C82.6856 88.8918 81.9513 89.5662 80.8498 89.5662C74.6082 89.7348 68.7337 92.7694 65.4293 97.6585C64.695 98.8387 64.5114 100.356 65.4293 101.705C66.3472 103.053 67.8158 103.896 69.6516 103.896H117.014C118.667 103.896 120.319 103.053 121.237 101.705C121.971 100.356 121.971 98.8387 121.237 97.6585C117.932 92.6008 112.241 89.5662 106 89.5662C104.898 89.5662 104.164 88.8918 104.164 87.8802C104.164 86.8687 104.898 86.1943 106 86.1943C113.527 86.1943 120.502 89.9033 124.541 95.9726C126.01 98.3329 126.01 101.03 124.541 103.391C123.073 106.088 120.135 107.605 117.198 107.605Z" fill="#2B3C65"/>
    <path d="M101.046 81.8105V88.5542C101.046 90.4087 100.311 92.0946 98.8426 93.2747C97.5576 94.4549 95.7218 95.2978 93.7025 95.2978C89.6638 95.2978 86.3594 92.2632 86.3594 88.5542V81.8105H101.046Z" fill="#FECB4D"/>
    <path d="M93.7023 96.9841C88.5621 96.9841 84.5234 93.2751 84.5234 88.5546V81.8109C84.5234 80.7994 85.2577 80.125 86.3592 80.125H101.045C102.147 80.125 102.881 80.7994 102.881 81.8109V88.5546C102.881 90.9148 101.963 93.1065 100.127 94.6238C98.4753 96.1412 96.0888 96.9841 93.7023 96.9841ZM88.195 83.4968V88.5546C88.195 91.4206 90.5815 93.6123 93.7023 93.6123C95.1709 93.6123 96.4559 93.1065 97.5574 92.095C99.026 90.9148 99.2096 89.5661 99.2096 88.5546V83.4968H88.195Z" fill="#2B3C65"/>
    <path d="M108.204 65.2882V72.7062C108.204 79.9557 101.779 86.3621 93.8854 86.5307C85.6244 86.6993 79.0156 80.63 79.0156 73.0434V67.4799C79.0156 66.2998 79.9335 65.2882 81.2186 65.1196C84.7065 64.7825 91.3153 63.4337 94.9868 57.1959C95.5376 56.1843 97.1898 56.0157 97.9241 57.0273C99.2091 58.7132 101.412 60.2305 105.634 60.9049C106.552 61.0735 107.286 61.5792 107.654 62.4222C108.021 63.4337 108.204 64.1081 108.204 65.2882Z" fill="#FECB4D"/>
    <path d="M93.518 88.2166C84.5228 88.2166 77.1797 81.473 77.1797 73.0434V67.4799C77.1797 65.4568 78.8319 63.7709 81.0348 63.4337C85.0735 63.0965 90.3972 61.5792 93.518 56.3529C94.0688 55.3414 95.3538 54.667 96.6389 54.667C97.7403 54.667 98.8418 55.1728 99.5761 56.0157C100.861 57.7016 102.88 58.7132 106.001 59.2189C107.653 59.5561 108.755 60.3991 109.489 61.7478C110.04 63.0965 110.224 63.9395 110.224 65.2882V72.7062C110.224 80.9672 102.88 88.048 94.0688 88.2166H93.518ZM96.4553 58.0388C92.7837 64.4453 86.3585 66.2998 81.402 66.8056C81.0348 66.8056 80.8512 67.1427 80.8512 67.4799V73.0434C80.8512 79.6185 86.3585 84.8448 93.518 84.8448H93.8852C100.678 84.6762 106.368 79.1127 106.368 72.7062V65.2882C106.368 64.2767 106.185 63.7709 106.001 62.928C106.001 62.7594 105.818 62.5908 105.451 62.5908C101.228 61.9164 98.291 60.3991 96.4553 58.0388Z" fill="#2B3C65"/>
    <path d="M60.1122 41.8549C66.9051 41.8549 72.4118 36.7977 72.4118 30.5593C72.4118 24.3209 66.9051 19.2637 60.1122 19.2637C53.3192 19.2637 47.8125 24.3209 47.8125 30.5593C47.8125 36.7977 53.3192 41.8549 60.1122 41.8549Z" fill="#77C9AE"/>
    <path d="M60.105 35.1108C57.3514 35.1108 55.1484 33.0877 55.1484 30.5588C55.1484 28.0299 57.3514 26.0068 60.105 26.0068C62.8587 26.0068 65.0616 28.0299 65.0616 30.5588C65.0616 33.0877 62.8587 35.1108 60.105 35.1108Z" fill="#62C3A6"/>
    <path d="M60.112 43.5402C52.4018 43.5402 45.9766 37.6395 45.9766 30.5587C45.9766 23.4778 52.4018 17.5771 60.112 17.5771C67.8222 17.5771 74.2474 23.4778 74.2474 30.5587C74.2474 37.6395 67.8222 43.5402 60.112 43.5402ZM60.112 20.949C54.4211 20.949 49.6481 25.3323 49.6481 30.5587C49.6481 35.785 54.4211 40.1684 60.112 40.1684C65.8029 40.1684 70.5759 35.785 70.5759 30.5587C70.5759 25.3323 65.8029 20.949 60.112 20.949Z" fill="#2B3C65"/>
  </g>
  <defs>
    <clipPath id="clip0_5193_30326">
      <rect width="136" height="124.898" fill="white" transform="translate(0 0.549805)"/>
    </clipPath>
  </defs>
</svg>