<svg width="28" height="28" viewBox="0 0 28 28" fill="none" xmlns="http://www.w3.org/2000/svg">
<g clip-path="url(#clip0_2066_2328)">
<path d="M27.9158 8.22791C27.8477 6.73767 27.611 5.71997 27.2649 4.82959C26.9135 3.89542 26.3624 3.04926 25.6501 2.34985C24.951 1.63763 24.1046 1.08627 23.1704 0.73465C22.2798 0.388794 21.2623 0.152313 19.7721 0.0845947C18.2791 0.0162354 17.8021 0 14 0C10.1979 0 9.72092 0.0162354 8.22791 0.0841675C6.73767 0.152313 5.72018 0.389008 4.82959 0.735077C3.89542 1.08649 3.04926 1.63763 2.34985 2.34985C1.63763 3.04904 1.08627 3.8952 0.73465 4.82938C0.388794 5.71997 0.152313 6.73767 0.0845947 8.22769C0.0162354 9.72092 0 10.1977 0 13.9998C0 17.8021 0.0162354 18.2791 0.0845947 19.7721C0.152527 21.2621 0.389221 22.2798 0.73529 23.1704C1.0867 24.1044 1.63785 24.9507 2.35007 25.6499C3.04926 26.3622 3.89563 26.9133 4.8298 27.2647C5.72018 27.611 6.73788 27.8475 8.22812 27.9156C9.72134 27.9838 10.1982 27.9998 14.0002 27.9998C17.8023 27.9998 18.2793 27.9838 19.7723 27.9156C21.2625 27.8475 22.28 27.611 23.1706 27.2647C25.0511 26.5375 26.5378 25.0509 27.2649 23.1704C27.6112 22.2798 27.8477 21.2621 27.9158 19.7721C27.9838 18.2789 28 17.8021 28 14C28 10.1977 27.9838 9.72092 27.9158 8.22791ZM25.3957 19.6574C25.3336 21.0224 25.1054 21.7637 24.9138 22.257C24.4427 23.478 23.4778 24.443 22.2567 24.914C21.7635 25.1056 21.0222 25.3338 19.6572 25.3959C18.1812 25.4634 17.7384 25.4775 14 25.4775C10.2614 25.4775 9.81876 25.4634 8.34262 25.3959C6.97778 25.3338 6.23651 25.1056 5.74304 24.914C5.13507 24.6895 4.58499 24.3317 4.13339 23.8666C3.66833 23.415 3.31052 22.8651 3.086 22.257C2.89438 21.7637 2.66623 21.0224 2.60406 19.6574C2.53677 18.1812 2.52246 17.7384 2.52246 14.0002C2.52246 10.2618 2.53677 9.81918 2.60406 8.34283C2.66644 6.97778 2.89438 6.23651 3.086 5.74326C3.31052 5.13507 3.66855 4.58499 4.13339 4.13339C4.58499 3.66833 5.13507 3.31052 5.74326 3.08621C6.23651 2.89438 6.97778 2.66644 8.34283 2.60406C9.81897 2.53677 10.2618 2.52246 14 2.52246H13.9998C17.738 2.52246 18.1808 2.53677 19.6572 2.60428C21.0222 2.66644 21.7633 2.89459 22.2567 3.08621C22.8647 3.31073 23.4148 3.66855 23.8664 4.13339C24.3315 4.58499 24.6893 5.13507 24.9136 5.74326C25.1054 6.23651 25.3336 6.97778 25.3957 8.34283C25.463 9.81897 25.4773 10.2618 25.4773 14C25.4773 17.7384 25.4632 18.181 25.3957 19.6574Z" fill="#484C52"/>
<path d="M13.9996 6.81055C10.0292 6.81055 6.81055 10.0294 6.81055 13.9998C6.81055 17.9702 10.0292 21.1889 13.9996 21.1889C17.9702 21.1889 21.1889 17.9702 21.1889 13.9998C21.1889 10.0294 17.9702 6.81055 13.9996 6.81055ZM13.9996 18.6664C11.4225 18.6662 9.33301 16.577 9.33322 13.9996C9.33322 11.4225 11.4225 9.33301 13.9998 9.33301C16.5772 9.33322 18.6664 11.4225 18.6664 13.9996C18.6664 16.577 16.577 18.6664 13.9996 18.6664Z" fill="#484C52"/>
<path d="M23.153 6.52682C23.153 7.45459 22.4009 8.20676 21.4731 8.20676C20.5451 8.20676 19.793 7.45459 19.793 6.52682C19.793 5.59885 20.5451 4.84668 21.4731 4.84668C22.4009 4.84668 23.153 5.59885 23.153 6.52682Z" fill="#484C52"/>
</g>
<defs>
<clipPath id="clip0_2066_2328">
<rect width="28" height="28" fill="#484C52"/>
</clipPath>
</defs>
</svg>
