<svg width="24" height="24" viewBox="0 0 24 24" fill="none" xmlns="http://www.w3.org/2000/svg">
<path d="M20.638 0.816406C21.3126 0.816406 21.9596 1.08439 22.4366 1.56141C22.9136 2.03843 23.1816 2.68541 23.1816 3.36002V21.1653C23.1816 21.8399 22.9136 22.4869 22.4366 22.9639C21.9596 23.441 21.3126 23.7089 20.638 23.7089H2.83268C2.15807 23.7089 1.51109 23.441 1.03407 22.9639C0.55705 22.4869 0.289063 21.8399 0.289062 21.1653V3.36002C0.289062 2.68541 0.55705 2.03843 1.03407 1.56141C1.51109 1.08439 2.15807 0.816406 2.83268 0.816406H20.638ZM20.0021 20.5294V13.7888C20.0021 12.6892 19.5653 11.6347 18.7877 10.8571C18.0102 10.0796 16.9556 9.64275 15.856 9.64275C14.775 9.64275 13.5159 10.3041 12.9054 11.2961V9.88439H9.35705V20.5294H12.9054V14.2594C12.9054 13.2801 13.6939 12.4789 14.6732 12.4789C15.1454 12.4789 15.5983 12.6665 15.9322 13.0004C16.2661 13.3343 16.4537 13.7872 16.4537 14.2594V20.5294H20.0021ZM5.22368 7.88766C5.79035 7.88766 6.33381 7.66255 6.73451 7.26185C7.1352 6.86115 7.36031 6.31769 7.36031 5.75102C7.36031 4.56824 6.40646 3.60167 5.22368 3.60167C4.65363 3.60167 4.10694 3.82811 3.70385 4.2312C3.30077 4.63428 3.07432 5.18098 3.07432 5.75102C3.07432 6.9338 4.0409 7.88766 5.22368 7.88766ZM6.99149 20.5294V9.88439H3.46858V20.5294H6.99149Z" fill="#484C52"/>
</svg>